<?xml version="1.0"?>
<svg version="1.1" xmlns="http://www.w3.org/2000/svg" width="600px" height="250px" style="border: dashed 2px #aaa"><path fill="#ffffff" d="M66.859375,119.1875l-1.65625-5.4375l-8.328125,0l-1.65625,5.4375l-5.21875,0l8.0625-22.9375l5.921875,0l8.09375,22.9375l-5.21875,0z M64.046875,109.6875q-2.296875-7.390625-2.5859375-8.359375t-0.4140625-1.53125q-0.515625,2-2.953125,9.890625l5.953125,0z M96.10578125,107.546875q0,5.640625-3.2109375,8.640625t-9.2734375,3l-6.46875,0l0-22.84375l7.171875,0q5.59375,0,8.6875,2.953125t3.09375,8.25z M91.07453125,107.671875q0-7.359375-6.5-7.359375l-2.578125,0l0,14.875l2.078125,0q7,0,7-7.515625z M112.7115625,119.1875l-5.5-17.921875l-0.140625,0q0.296875,5.46875,0.296875,7.296875l0,10.625l-4.328125,0l0-22.84375l6.59375,0l5.40625,17.46875l0.09375,0l5.734375-17.46875l6.59375,0l0,22.84375l-4.515625,0l0-10.8125q0-0.765625,0.0234375-1.765625t0.2109375-5.3125l-0.140625,0l-5.890625,17.890625l-4.4375,0z M135.41109375,119.1875l0-22.84375l4.84375,0l0,22.84375l-4.84375,0z M168.47,119.1875l-6.15625,0l-9.9375-17.28125l-0.140625,0q0.296875,4.578125,0.296875,6.53125l0,10.75l-4.328125,0l0-22.84375l6.109375,0l9.921875,17.109375l0.109375,0q-0.234375-4.453125-0.234375-6.296875l0-10.8125l4.359375,0l0,22.84375z"/><path fill="#" d=""/></svg>
